<svg width="76" height="56" viewBox="0 0 76 56" fill="none" xmlns="http://www.w3.org/2000/svg">
<path d="M59.9803 0.273846C67.5803 -0.926154 73.8136 2.10718 75.9803 3.77385C71.1803 3.77385 68.3136 5.77385 67.4803 6.77385C66.147 8.10718 63.3803 11.9738 62.9803 16.7738C62.5803 21.5738 60.8136 28.4405 59.9803 31.2738C58.8136 34.9405 54.0803 43.1739 44.4803 46.7738C35.2779 50.2248 21.9711 49.3569 15.7465 48.3983C7.66524 51.6969 11.6408 49.7918 14.9803 48.2738C15.2219 48.3153 15.4776 48.3568 15.7465 48.3983C16.5381 48.0751 17.4454 47.7021 18.4803 47.2738C32.9803 41.2738 36.4803 25.2738 38.4803 20.2738C40.0803 16.2738 44.8136 9.60718 46.9803 6.77385C48.147 5.10718 52.3803 1.47385 59.9803 0.273846Z" fill="#DED224"/>
<path d="M41.8882 11.1784C53.0882 -4.02162 68.5549 -0.488288 74.8882 3.17838C71.4526 3.60783 68.6809 4.9078 66.3882 6.80203C66.2484 6.91752 66.1104 7.03522 65.9741 7.15507C64.5847 8.69781 61.7634 14.8649 58.8882 30.6784C57.5925 37.8045 52.3186 42.2202 45.6153 44.8414C36.3884 50.2535 21.3244 48.9986 14.8882 47.6784C8.42003 50.4018 0.097508 53.867 2.38818 52.7713C3.46187 52.2577 6.86727 50.7421 13.8882 47.6784C41.3882 35.6784 27.8882 30.1784 41.8882 11.1784Z" fill="#DED224"/>
<path d="M10.6464 41.8826C10.6464 44.7235 10.5872 47.5639 10.5872 50.4053C10.5872 50.679 10.6464 50.9136 10.6464 51.1879C10.6464 51.5874 10.2342 51.6672 9.90988 51.8159C8.23638 52.5835 6.46315 53.0724 4.68838 53.5422C4.27097 53.6527 3.85849 53.7665 3.43233 53.8381C3.29377 53.8614 3.0651 53.9377 2.92267 53.8874C2.73229 53.8202 2.66852 53.431 2.62674 53.2824C2.4877 52.7881 2.3304 52.2917 2.20915 51.7929C2.14622 51.534 2.1264 51.2758 2.12366 51.0103C2.12153 50.8031 2.12366 50.5098 2.12366 50.9544C2.12366 51.5042 2.01445 52.9531 2.89965 52.8846C3.42957 52.8435 3.95078 52.5355 4.41876 52.3124C5.28723 51.8984 6.15485 51.4812 7.01964 51.0597C7.5583 50.7971 8.08982 50.5207 8.59136 50.1916C8.67728 50.1352 8.91975 50.0125 8.97606 49.9055C9.08286 49.7026 8.70708 49.379 8.6078 49.2479C8.37264 48.9375 8.21863 48.5667 7.98306 48.2549C7.74048 47.9338 7.99905 48.4027 8.04224 48.5377C8.08309 48.6653 8.14671 48.816 8.2198 48.9257" stroke="white" stroke-width="3" stroke-linecap="round"/>
<path d="M9.99536 47.2685C10.9491 47.9701 11.5692 48.8617 12.1721 49.8595C12.2151 49.9307 12.3579 50.026 12.3628 50.1094C12.3698 50.2286 12.2692 50.0886 12.2576 50.0502C12.2355 49.9773 12.0596 49.5923 12.2576 49.8398C12.9495 50.7047 13.9768 51.2082 14.967 51.6482" stroke="white" stroke-width="3" stroke-linecap="round"/>
<path d="M16.1403 50.7809C14.5556 49.5103 12.619 48.8726 10.8342 47.9504C10.5238 47.79 10.2042 47.645 9.89515 47.4831C9.82265 47.4451 9.79584 47.3843 9.71094 47.3843" stroke="white" stroke-width="3" stroke-linecap="round"/>
<path d="M15.1642 47.6543C15.362 47.6543 15.5286 47.781 15.7117 47.8542C15.7264 47.8601 15.7719 47.8735 15.7563 47.8705C15.6431 47.8493 15.5326 47.8009 15.4199 47.7744C15.2878 47.7434 15.1546 47.7084 15.0201 47.6886C14.9905 47.6843 14.9578 47.6902 14.9291 47.6818C14.9131 47.677 14.8328 47.6519 14.8253 47.6783C14.8078 47.7393 14.8325 47.747 14.7541 47.747C14.6642 47.747 14.5744 47.747 14.4846 47.747" stroke="#DED224" stroke-width="0.4" stroke-linecap="round"/>
<path d="M14.4229 47.7778C14.4952 47.8003 14.5567 47.8353 14.6322 47.8405C14.6907 47.8445 14.7561 47.8609 14.8124 47.8774C15.0548 47.9482 15.2852 48.0531 15.5272 48.1254C15.907 48.2388 16.2987 48.2258 16.6908 48.2258C16.9439 48.2258 17.197 48.2258 17.4502 48.2258" stroke="#DED224" stroke-width="0.4" stroke-linecap="round"/>
<path d="M16.8168 48.0095C16.5155 48.0095 16.2141 47.9861 15.9159 47.9443C15.6846 47.912 15.4518 47.8961 15.226 47.8396" stroke="#DED224" stroke-width="0.4" stroke-linecap="round"/>
<path d="M16.2454 48.1331C16.0971 48.0847 15.9358 48.0753 15.7821 48.049C15.5108 48.0026 15.2465 47.9306 14.9823 47.8551C14.9224 47.838 14.6394 47.7129 14.5765 47.7864C14.4993 47.8765 14.7823 47.922 14.8485 47.94C15.0142 47.9852 15.1857 48.0071 15.3513 48.0567C15.6101 48.1344 15.9039 48.076 16.1665 48.049C16.329 48.0323 16.492 48.0363 16.6547 48.0173C16.8076 47.9994 16.9579 47.9668 17.1104 47.9478" stroke="#DED224" stroke-width="0.4" stroke-linecap="round"/>
<path d="M16.369 48.8436C16.0226 48.6997 15.6301 48.6324 15.2604 48.575C15.1822 48.5629 15.1042 48.5501 15.0252 48.5501C15.0032 48.5501 14.9773 48.5541 14.9557 48.5493C14.9017 48.5373 15.0831 48.543 15.0922 48.5441C15.3757 48.5796 15.6596 48.6192 15.9451 48.6274C16.0714 48.631 15.7926 48.5955 15.7632 48.5879C15.5054 48.5212 15.2515 48.4389 14.9926 48.3768C14.8868 48.3514 14.9599 48.3962 14.9137 48.4094C14.8687 48.4223 14.8102 48.3957 14.7635 48.3957C14.7066 48.3957 14.6497 48.3957 14.5928 48.3957" stroke="white" stroke-width="0.4" stroke-linecap="round"/>
</svg>
